<svg width="30" height="30" viewBox="0 0 30 30" fill="none" xmlns="http://www.w3.org/2000/svg">
<path fill-rule="evenodd" clip-rule="evenodd" d="M9.64287 2.14286C9.64287 1.57454 9.86864 1.02949 10.2705 0.627628C10.6724 0.225765 11.2174 0 11.7857 0L18.2143 0C18.7826 0 19.3277 0.225765 19.7295 0.627628C20.1314 1.02949 20.3572 1.57454 20.3572 2.14286V3.21429C20.3572 3.78261 20.1314 4.32765 19.7295 4.72951C19.3277 5.13138 18.7826 5.35714 18.2143 5.35714H11.7857C11.2174 5.35714 10.6724 5.13138 10.2705 4.72951C9.86864 4.32765 9.64287 3.78261 9.64287 3.21429V2.14286ZM23.0357 2.14286H24.1072C24.9596 2.14286 25.7772 2.4815 26.38 3.0843C26.9828 3.6871 27.3214 4.50466 27.3214 5.35714V26.7857C27.3214 27.6382 26.9828 28.4558 26.38 29.0586C25.7772 29.6614 24.9596 30 24.1072 30H5.89287C5.04039 30 4.22283 29.6614 3.62003 29.0586C3.01724 28.4558 2.67859 27.6382 2.67859 26.7857V5.35714C2.67859 4.50466 3.01724 3.6871 3.62003 3.0843C4.22283 2.4815 5.04039 2.14286 5.89287 2.14286H6.9643V3.21429C6.9643 4.49301 7.47227 5.71936 8.37647 6.62355C9.28066 7.52774 10.507 8.03571 11.7857 8.03571H18.2143C19.493 8.03571 20.7194 7.52774 21.6236 6.62355C22.5278 5.71936 23.0357 4.49301 23.0357 3.21429V2.14286ZM12.7929 12.7457C12.7929 12.2807 13.17 11.9057 13.635 11.9057H16.3672C16.83 11.9057 17.2072 12.2807 17.2072 12.7457V16.0886H20.55C21.015 16.0886 21.39 16.4657 21.39 16.9307V19.6629C21.39 19.8856 21.3015 20.0993 21.144 20.2568C20.9865 20.4144 20.7728 20.5029 20.55 20.5029H17.2072V23.8457C17.2074 23.9562 17.1859 24.0657 17.1438 24.1678C17.1017 24.27 17.0399 24.3628 16.9619 24.4411C16.8839 24.5193 16.7912 24.5814 16.6891 24.6237C16.5871 24.6661 16.4777 24.6879 16.3672 24.6879H13.6329C13.5224 24.6879 13.413 24.6661 13.3109 24.6237C13.2089 24.5814 13.1162 24.5193 13.0381 24.4411C12.9601 24.3628 12.8983 24.27 12.8562 24.1678C12.8141 24.0657 12.7926 23.9562 12.7929 23.8457V20.5029H9.45002C9.22724 20.5029 9.01358 20.4144 8.85605 20.2568C8.69852 20.0993 8.61002 19.8856 8.61002 19.6629V16.9286C8.61002 16.4636 8.98502 16.0864 9.45002 16.0864H12.7929V12.7457Z" fill="#414396"/>
</svg>
